<svg xmlns="http://www.w3.org/2000/svg" version="1.1" xmlns:xlink="http://www.w3.org/1999/xlink" width="200" height="200"><svg xmlns="http://www.w3.org/2000/svg" version="1.1" xmlns:xlink="http://www.w3.org/1999/xlink" viewBox="0 0 200 200"><rect width="200" height="200" fill="url('#gradient')"></rect><defs><linearGradient id="SvgjsLinearGradient1001" gradientTransform="rotate(45 0.5 0.5)"><stop offset="0%" stop-color="#ceaa96"></stop><stop offset="100%" stop-color="#0f3f78"></stop></linearGradient></defs><g><g fill="#445272" transform="matrix(1.9966234692664369,0,0,1.9966234692664369,17.29895774586818,114.77735704238995)" stroke="#000000" stroke-width="0.55"><path d="M12.24-14.22L12.24-11.57L7.97-11.57L7.97 0L4.54 0L4.54-11.57L0.35-11.57L0.35-14.22L12.24-14.22ZM11.09-4.82L11.08-5.38Q11.08-6.96 11.70-8.20Q12.31-9.43 13.47-10.10Q14.62-10.76 16.17-10.76L16.17-10.76Q18.54-10.76 19.91-9.29Q21.28-7.82 21.28-5.29L21.28-5.29L21.28-5.18Q21.28-2.71 19.91-1.25Q18.54 0.20 16.19 0.20L16.19 0.20Q13.94 0.20 12.57-1.16Q11.20-2.51 11.09-4.82L11.09-4.82ZM14.38-5.77L14.38-5.18Q14.38-3.71 14.83-3.03Q15.29-2.34 16.19-2.34L16.19-2.34Q17.95-2.34 17.99-5.05L17.99-5.05L17.99-5.38Q17.99-8.22 16.17-8.22L16.17-8.22Q14.52-8.22 14.38-5.77L14.38-5.77ZM22.31-5.36L22.31-5.36Q22.31-7.87 23.40-9.32Q24.48-10.76 26.43-10.76L26.43-10.76Q27.84-10.76 28.81-9.65L28.81-9.65L28.81-15L32.11-15L32.11 0L29.15 0L28.98-1.13Q27.97 0.20 26.41 0.20L26.41 0.20Q24.52 0.20 23.42-1.25Q22.31-2.70 22.31-5.36ZM25.62-5.76L25.61-5.16Q25.61-2.34 27.25-2.34L27.25-2.34Q28.34-2.34 28.81-3.26L28.81-3.26L28.81-7.29Q28.36-8.22 27.27-8.22L27.27-8.22Q25.74-8.22 25.62-5.76L25.62-5.76ZM33.57-4.82L33.56-5.38Q33.56-6.96 34.18-8.20Q34.79-9.43 35.95-10.10Q37.10-10.76 38.65-10.76L38.65-10.76Q41.03-10.76 42.39-9.29Q43.76-7.82 43.76-5.29L43.76-5.29L43.76-5.18Q43.76-2.71 42.39-1.25Q41.02 0.20 38.67 0.20L38.67 0.20Q36.42 0.20 35.05-1.16Q33.68-2.51 33.57-4.82L33.57-4.82ZM36.87-5.77L36.86-5.18Q36.86-3.71 37.31-3.03Q37.77-2.34 38.67-2.34L38.67-2.34Q40.43-2.34 40.47-5.05L40.47-5.05L40.47-5.38Q40.47-8.22 38.65-8.22L38.65-8.22Q37.00-8.22 36.87-5.77L36.87-5.77ZM53.77-14.22L53.77-2.64L59.74-2.64L59.74 0L50.34 0L50.34-14.22L53.77-14.22ZM64.50-10.57L64.50 0L61.20 0L61.20-10.57L64.50-10.57ZM61.01-13.29L61.01-13.29Q61.01-13.99 61.51-14.44Q62.02-14.89 62.83-14.89Q63.64-14.89 64.15-14.44Q64.66-13.99 64.66-13.29Q64.66-12.59 64.15-12.14Q63.64-11.69 62.83-11.69Q62.02-11.69 61.51-12.14Q61.01-12.59 61.01-13.29ZM72.06-2.97L72.06-2.97Q72.06-3.39 71.62-3.64Q71.18-3.90 69.95-4.17Q68.72-4.44 67.92-4.89Q67.12-5.33 66.70-5.97Q66.28-6.60 66.28-7.42L66.28-7.42Q66.28-8.88 67.48-9.82Q68.68-10.76 70.63-10.76L70.63-10.76Q72.71-10.76 73.98-9.81Q75.25-8.87 75.25-7.32L75.25-7.32L71.95-7.32Q71.95-8.59 70.62-8.59L70.62-8.59Q70.10-8.59 69.75-8.31Q69.39-8.02 69.39-7.59L69.39-7.59Q69.39-7.15 69.82-6.88Q70.25-6.60 71.20-6.43Q72.14-6.25 72.85-6.01L72.85-6.01Q75.23-5.19 75.23-3.07L75.23-3.07Q75.23-1.62 73.95-0.71Q72.67 0.20 70.63 0.20L70.63 0.20Q69.27 0.20 68.20-0.29Q67.14-0.78 66.54-1.62Q65.95-2.46 65.95-3.39L65.95-3.39L69.02-3.39Q69.04-2.66 69.51-2.32Q69.98-1.98 70.71-1.98L70.71-1.98Q71.39-1.98 71.72-2.26Q72.06-2.53 72.06-2.97ZM77.31-13.19L80.61-13.19L80.61-10.57L82.34-10.57L82.34-8.28L80.61-8.28L80.61-3.45Q80.61-2.85 80.82-2.62Q81.04-2.38 81.67-2.38L81.67-2.38Q82.16-2.38 82.49-2.44L82.49-2.44L82.49-0.09Q81.60 0.20 80.63 0.20L80.63 0.20Q78.94 0.20 78.13-0.61Q77.31-1.41 77.31-3.04L77.31-3.04L77.31-8.28L75.97-8.28L75.97-10.57L77.31-10.57L77.31-13.19Z"></path></g></g></svg><style>@media (prefers-color-scheme: light) { :root { filter: none; } }
@media (prefers-color-scheme: dark) { :root { filter: none; } }
</style></svg>